<?xml version="1.0" encoding="utf-8"?>
<svg version="1.1" baseProfile="tiny" id="Layer_1" xmlns="http://www.w3.org/2000/svg" xmlns:xlink="http://www.w3.org/1999/xlink"
	 x="0px" y="0px" width="104px" height="33.904px" viewBox="0 0 104 33.904" xml:space="preserve">
<g>
	<path fill="#00aff4" d="M29.702,20.424c0,1.353-0.048,2.397-0.142,3.138c-0.096,0.742-0.314,1.386-0.652,1.93
		c-0.34,0.547-0.88,0.968-1.623,1.262c-0.741,0.29-1.752,0.438-3.032,0.438c-2.319,0-3.903-0.356-4.756-1.074
		c-0.955-0.8-1.434-2.325-1.434-4.581c0-1.473,0.014-2.39,0.038-2.752c0.096-1.134,0.329-2.005,0.698-2.604
		c0.698-1.12,2.322-1.681,4.874-1.681c2.375,0,3.962,0.38,4.763,1.138c0.465,0.439,0.792,1.032,0.981,1.775
		C29.607,18.154,29.702,19.158,29.702,20.424 M26.75,20.267c0-0.938-0.022-1.542-0.064-1.814c-0.13-0.732-0.447-1.202-0.944-1.407
		c-0.441-0.18-1.167-0.271-2.171-0.271h-0.417c-0.49,0-0.869,0.073-1.136,0.22c-0.673,0.292-0.984,1.503-0.931,3.633l0.053,1.738
		c0.009,0.38,0.055,0.757,0.144,1.134c0.144,0.637,0.47,1.058,0.979,1.267c0.336,0.127,0.899,0.189,1.688,0.189
		c0.79,0,1.353-0.078,1.688-0.233c0.473-0.213,0.778-0.654,0.918-1.324C26.685,22.778,26.75,21.733,26.75,20.267"/>
	<polygon fill="#00aff4" points="36.394,27.022 33.402,27.022 33.402,9.155 36.394,8.476 	"/>
	<path fill="#00aff4" d="M52.062,20.424c0,1.353-0.05,2.397-0.144,3.138c-0.094,0.742-0.313,1.386-0.651,1.93
		c-0.34,0.547-0.879,0.968-1.621,1.262c-0.743,0.29-1.752,0.438-3.037,0.438c-2.317,0-3.902-0.356-4.753-1.074
		c-0.957-0.8-1.433-2.325-1.433-4.581c0-1.473,0.01-2.39,0.037-2.752c0.095-1.134,0.328-2.005,0.699-2.604
		c0.697-1.12,2.322-1.681,4.871-1.681c2.375,0,3.964,0.38,4.766,1.138c0.463,0.439,0.792,1.032,0.979,1.775
		C51.965,18.154,52.062,19.158,52.062,20.424 M49.107,20.267c0-0.938-0.021-1.542-0.062-1.814c-0.129-0.732-0.446-1.202-0.943-1.407
		c-0.442-0.18-1.166-0.271-2.173-0.271h-0.415c-0.489,0-0.87,0.073-1.135,0.22c-0.676,0.292-0.984,1.503-0.934,3.633l0.058,1.738
		c0.007,0.38,0.056,0.757,0.141,1.134c0.146,0.637,0.473,1.058,0.98,1.267c0.336,0.127,0.899,0.189,1.689,0.189
		c0.79,0,1.354-0.078,1.688-0.233c0.473-0.213,0.777-0.654,0.915-1.324C49.045,22.778,49.107,21.733,49.107,20.267"/>
	<path fill="#00aff4" d="M66.85,27.022h-2.953v-7.613c0-1.271-0.267-2.05-0.8-2.333c-0.327-0.173-0.836-0.259-1.524-0.259
		c-1.935,0-2.901,0.938-2.901,2.813v7.393H55.76V14.666c0,0,3.708,0.073,3.767,0.074c2.783,0.088,5.823,0.272,6.239,0.634
		c0.723,0.636,1.084,1.704,1.084,3.198V27.022L66.85,27.022z"/>
	<path fill="#00aff4" d="M14.876,21.622c0.042,0.821-0.039,1.646-0.244,2.47c-0.337,1.314-1.287,2.19-2.848,2.641
		c-0.852,0.25-1.927,0.375-3.22,0.375c-1.655,0-2.766-0.028-3.325-0.079c-1.371-0.12-2.417-0.414-3.143-0.878
		c-0.974-0.637-1.587-1.848-1.836-3.63c-0.095-0.682-0.153-1.534-0.169-2.56v-1.872l-0.084-1.991
		c-0.033-0.989,0.055-1.928,0.271-2.815c0.045-0.197,0.116-0.443,0.221-0.737c0.577-1.654,1.868-2.669,3.873-3.048
		c0.957-0.18,2.164-0.271,3.621-0.271c2.797,0,4.587,0.349,5.373,1.05c0.576,0.535,0.999,1.624,1.266,3.265
		c0.094,0.562,0.142,1.142,0.142,1.736h-2.032l-1.419-0.681L11.3,14.278c-0.069-0.917-0.337-1.531-0.799-1.844
		c-0.295-0.198-0.668-0.297-1.126-0.297H7.308c-1.791,0-2.873,0.301-3.243,0.904c-0.205,0.336-0.344,0.758-0.414,1.266l-0.103,2.596
		v1.64l0.042,1.794c0.028,1.231,0.143,2.082,0.352,2.545c0.249,0.533,0.662,0.89,1.24,1.071c0.533,0.164,1.434,0.245,2.7,0.245
		c0.948,0,1.59-0.04,1.926-0.115c0.751-0.155,1.235-0.513,1.449-1.077c0.187-0.491,0.283-1.267,0.283-2.339h3.284L14.876,21.622z"/>
	<path fill="#00aff4" d="M81.418,14.757l-3.284,13.146c-0.729,3.598-2.824,5.062-3.523,5.438c-0.695,0.378-1.508,0.564-2.427,0.564
		c-0.164,0-0.327-0.006-0.49-0.014l-0.352-0.028l-0.4-0.027V31.66l0.685,0.051c1.646-0.09,3.658-1.748,3.656-3.921l-1.437-0.674
		l-4.123-12.359h3.115l3.125,10.519l2.414-10.519H81.418z"/>
</g>
<path fill="#5B5B5D" d="M85.279,9.36c0,0.524,0.426,0.948,0.948,0.948c0.524,0,0.947-0.425,0.947-0.948
	c0-0.524-0.424-0.948-0.947-0.948C85.706,8.413,85.279,8.836,85.279,9.36"/>
<path fill="#828385" d="M87.42,11.665c0,0.523,0.425,0.948,0.947,0.948c0.523,0,0.947-0.425,0.947-0.948
	c0-0.525-0.424-0.948-0.947-0.948C87.845,10.717,87.42,11.141,87.42,11.665"/>
<path fill="#A8A9AC" d="M93.692,0.948c0,0.524,0.425,0.948,0.948,0.948s0.948-0.423,0.948-0.948C95.589,0.425,95.164,0,94.641,0
	S93.692,0.425,93.692,0.948"/>
<path fill="#D2D3D4" d="M87.42,7.056c0,0.522,0.425,0.947,0.947,0.947c0.523,0,0.947-0.425,0.947-0.947
	c0-0.524-0.424-0.949-0.947-0.949C87.845,6.107,87.42,6.533,87.42,7.056"/>
<path fill="#5B5B5D" d="M102.104,9.36c0,0.524,0.425,0.948,0.948,0.948c0.522,0,0.947-0.425,0.947-0.948
	c0-0.524-0.425-0.948-0.947-0.948C102.528,8.413,102.104,8.836,102.104,9.36"/>
<path fill="#828385" d="M99.411,3.642c0,0.524,0.424,0.949,0.948,0.949c0.522,0,0.945-0.424,0.945-0.949
	c0-0.524-0.424-0.947-0.945-0.947C99.835,2.694,99.411,3.118,99.411,3.642"/>
<path fill="#828385" d="M87.975,15.079c0,0.523,0.424,0.947,0.946,0.947c0.524,0,0.948-0.424,0.948-0.947
	c0-0.524-0.425-0.948-0.948-0.948C88.399,14.131,87.975,14.555,87.975,15.079"/>
<path fill="#828385" d="M99.965,7.056c0,0.522,0.424,0.947,0.948,0.947c0.523,0,0.947-0.425,0.947-0.947
	c0-0.524-0.425-0.949-0.947-0.949C100.388,6.108,99.965,6.533,99.965,7.056"/>
<path fill="#A8A9AC" d="M93.692,17.772c0,0.523,0.425,0.948,0.948,0.948s0.948-0.425,0.948-0.948c0-0.524-0.425-0.948-0.948-0.948
	S93.692,17.248,93.692,17.772"/>
<path fill="#A8A9AC" d="M95.997,3.087c0,0.525,0.425,0.948,0.947,0.948c0.523,0,0.947-0.424,0.947-0.948
	c0-0.523-0.425-0.947-0.947-0.947C96.422,2.14,95.997,2.564,95.997,3.087"/>
<path fill="#A8A9AC" d="M91.388,15.633c0,0.524,0.425,0.949,0.948,0.949c0.524,0,0.947-0.424,0.947-0.949
	c0-0.522-0.424-0.947-0.947-0.947S91.388,15.109,91.388,15.633"/>
<path fill="#2CACE2" d="M90.125,12.929c0,0.523,0.425,0.947,0.947,0.947c0.523,0,0.948-0.425,0.948-0.947
	c0-0.523-0.425-0.947-0.948-0.947S90.125,12.406,90.125,12.929"/>
<path fill="#2CACE2" d="M97.26,5.792c0,0.524,0.426,0.948,0.948,0.948c0.524,0,0.948-0.425,0.948-0.948
	c0-0.523-0.424-0.947-0.948-0.947C97.686,4.844,97.26,5.268,97.26,5.792"/>
<path fill="#D2D3D4" d="M99.411,15.079c0,0.523,0.424,0.947,0.948,0.947c0.522,0,0.945-0.424,0.945-0.947
	c0-0.524-0.424-0.949-0.945-0.949C99.835,14.129,99.411,14.555,99.411,15.079"/>
<path fill="#D2D3D4" d="M87.975,3.642c0,0.524,0.424,0.949,0.946,0.949c0.525,0,0.948-0.424,0.948-0.949
	c0-0.522-0.424-0.947-0.948-0.947C88.399,2.694,87.975,3.119,87.975,3.642"/>
<path fill="#5B5B5D" d="M99.966,11.665c0,0.523,0.423,0.948,0.947,0.948c0.523,0,0.947-0.425,0.947-0.948
	c0-0.525-0.425-0.948-0.947-0.948C100.388,10.717,99.966,11.141,99.966,11.665"/>
<path fill="#010101" d="M87.911,9.36c0,0.523,0.424,0.947,0.947,0.947c0.522,0,0.948-0.424,0.948-0.947
	c0-0.524-0.425-0.948-0.948-0.948C88.334,8.413,87.911,8.836,87.911,9.36"/>
<path fill="#010101" d="M99.473,9.36c0,0.523,0.425,0.947,0.948,0.947c0.524,0,0.948-0.424,0.948-0.947
	c0-0.524-0.424-0.948-0.948-0.948C99.898,8.413,99.473,8.836,99.473,9.36"/>
<path fill="#D2D3D4" d="M95.997,15.633c0,0.524,0.425,0.949,0.947,0.949c0.523,0,0.947-0.424,0.947-0.949
	c0-0.522-0.425-0.947-0.947-0.947S95.997,15.109,95.997,15.633"/>
<path fill="#D2D3D4" d="M91.388,3.087c0,0.525,0.425,0.948,0.948,0.948c0.524,0,0.947-0.424,0.947-0.948
	c0-0.523-0.424-0.947-0.947-0.947C91.812,2.14,91.388,2.564,91.388,3.087"/>
<path fill="#2CACE2" d="M97.26,12.929c0,0.523,0.426,0.947,0.948,0.947c0.524,0,0.948-0.425,0.948-0.947
	c0-0.523-0.424-0.947-0.948-0.947C97.686,11.982,97.26,12.406,97.26,12.929"/>
<path fill="#2CACE2" d="M90.125,5.792c0,0.524,0.425,0.948,0.947,0.948c0.523,0,0.948-0.425,0.948-0.948
	c0-0.523-0.425-0.947-0.948-0.947S90.125,5.268,90.125,5.792"/>
<path fill="#010101" d="M93.692,3.578c0,0.524,0.425,0.948,0.948,0.948s0.948-0.425,0.948-0.948c0-0.522-0.425-0.948-0.948-0.948
	S93.692,3.056,93.692,3.578"/>
<path fill="#010101" d="M93.692,15.143c0,0.523,0.425,0.947,0.948,0.947s0.948-0.423,0.948-0.947c0-0.524-0.425-0.949-0.948-0.949
	S93.692,14.619,93.692,15.143"/>
	
</svg>
