<?xml version="1.0" encoding="UTF-8" standalone="no"?>
<!DOCTYPE svg PUBLIC "-//W3C//DTD SVG 1.1//EN" "http://www.w3.org/Graphics/SVG/1.1/DTD/svg11.dtd">
<svg width="100%" height="100%" viewBox="0 0 800 190" version="1.1" xmlns="http://www.w3.org/2000/svg" xmlns:xlink="http://www.w3.org/1999/xlink" xml:space="preserve" xmlns:serif="http://www.serif.com/" style="fill-rule:evenodd;clip-rule:evenodd;stroke-linejoin:round;stroke-miterlimit:1.41421;">
    <g id="content" transform="matrix(1,0,0,1,-44.5,-33)">
        <g transform="matrix(1,0,0,1,114.141,102.931)">
            <path d="M0,19.644L0,5.233L48.247,5.233C48.739,7.773 49.027,10.795 49.027,14.068C49.027,24.876 46.069,38.257 36.548,47.778C27.283,57.429 15.446,62.575 -0.251,62.575C-29.329,62.575 -53.775,38.901 -53.775,9.822C-53.775,-19.255 -29.329,-42.931 -0.251,-42.931C15.832,-42.931 27.283,-36.626 35.903,-28.391L25.739,-18.227C19.563,-24.016 11.2,-28.52 -0.251,-28.52C-21.481,-28.52 -38.079,-11.408 -38.079,9.822C-38.079,31.052 -21.481,48.165 -0.251,48.165C13.517,48.165 21.364,42.632 26.382,37.614C30.471,33.526 33.164,27.662 34.209,19.644L0,19.644Z" style="fill:rgb(66,133,244);fill-rule:nonzero;"/>
        </g>
        <g transform="matrix(1,0,0,1,221.765,131.538)">
            <path d="M0,0.001C0,-12.223 -8.877,-20.586 -19.17,-20.586C-29.464,-20.586 -38.342,-12.223 -38.342,0.001C-38.342,12.095 -29.464,20.587 -19.17,20.587C-8.877,20.587 0,12.095 0,0.001M14.926,0.001C14.926,19.559 -0.386,33.968 -19.17,33.968C-37.956,33.968 -53.267,19.559 -53.267,0.001C-53.267,-19.685 -37.956,-33.967 -19.17,-33.967C-0.386,-33.967 14.926,-19.685 14.926,0.001" style="fill:rgb(233,66,53);fill-rule:nonzero;"/>
        </g>
        <g transform="matrix(1,0,0,1,296.146,131.538)">
            <path d="M0,0.001C0,-12.223 -8.878,-20.586 -19.171,-20.586C-29.465,-20.586 -38.342,-12.223 -38.342,0.001C-38.342,12.095 -29.465,20.587 -19.171,20.587C-8.878,20.587 0,12.095 0,0.001M14.925,0.001C14.925,19.559 -0.386,33.968 -19.171,33.968C-37.956,33.968 -53.268,19.559 -53.268,0.001C-53.268,-19.685 -37.956,-33.967 -19.171,-33.967C-0.386,-33.967 14.925,-19.685 14.925,0.001" style="fill:rgb(250,187,5);fill-rule:nonzero;"/>
        </g>
        <g transform="matrix(1,0,0,1,369.242,161.904)">
            <path d="M0,-30.236C0,-42.203 -7.978,-50.952 -18.143,-50.952C-28.437,-50.952 -37.057,-42.203 -37.057,-30.236C-37.057,-18.399 -28.437,-9.779 -18.143,-9.779C-7.978,-9.779 0,-18.399 0,-30.236M13.124,-62.275L13.124,-1.287C13.124,23.804 -1.673,34.097 -19.172,34.097C-35.641,34.097 -45.548,23.031 -49.279,14.025L-36.284,8.62C-33.969,14.154 -28.308,20.715 -19.172,20.715C-7.978,20.715 -1.03,13.767 -1.03,0.772L-1.03,-4.117L-1.544,-4.117C-4.89,0 -11.323,3.602 -19.429,3.602C-36.414,3.602 -51.981,-11.194 -51.981,-30.236C-51.981,-49.408 -36.414,-64.333 -19.429,-64.333C-11.323,-64.333 -4.89,-60.731 -1.544,-56.741L-1.03,-56.741L-1.03,-62.275L13.124,-62.275Z" style="fill:rgb(66,133,244);fill-rule:nonzero;"/>
        </g>
        <g transform="matrix(-1,-0,0,1,804.204,-28.616)">
            <rect x="396.559" y="92.553" width="14.926" height="99.51" style="fill:rgb(52,168,83);"/>
        </g>
        <g transform="matrix(1,0,0,1,429.64,132.568)">
            <path d="M0,-2.059L30.365,-14.668C28.692,-18.914 23.675,-21.873 17.756,-21.873C10.165,-21.873 -0.386,-15.183 0,-2.059M35.641,10.164L47.221,17.884C43.489,23.417 34.482,32.938 18.914,32.938C-0.386,32.938 -14.796,18.013 -14.796,-1.029C-14.796,-21.23 -0.257,-34.997 17.241,-34.997C34.868,-34.997 43.489,-20.972 46.319,-13.382L47.864,-9.522L2.444,9.264C5.919,16.083 11.323,19.557 18.914,19.557C26.505,19.557 31.78,15.826 35.641,10.164" style="fill:rgb(233,66,53);fill-rule:nonzero;"/>
        </g>
        <g transform="matrix(1,0,0,1,555.733,69.2633)">
            <path d="M0,96.243C-13.555,96.243 -24.92,91.655 -34.098,82.475C-43.276,73.299 -47.865,61.846 -47.865,48.12C-47.865,34.399 -43.276,22.946 -34.098,13.768C-24.92,4.59 -13.555,0 0,0C13.895,0 25.173,5.017 33.839,15.054L25.604,23.031C19.342,15.227 10.808,11.324 0,11.324C-10.036,11.324 -18.509,14.712 -25.412,21.489C-32.318,28.264 -35.771,37.144 -35.771,48.12C-35.771,59.103 -32.318,67.98 -25.412,74.756C-18.509,81.533 -10.036,84.922 0,84.922C11.065,84.922 20.499,80.461 28.306,71.539L36.54,79.774C32.337,84.837 27.062,88.846 20.714,91.805C14.365,94.764 7.462,96.243 0,96.243" style="fill:rgb(95,99,104);fill-rule:nonzero;"/>
        </g>
        <g transform="matrix(-1,-0,0,1,1221.32,-21.23)">
            <rect x="606.661" y="92.552" width="11.838" height="92.126" style="fill:rgb(95,99,104);"/>
        </g>
        <g transform="matrix(1,0,0,1,642.774,115.389)">
            <path d="M0,33.069C4.073,37.229 8.898,39.308 14.476,39.308C20.05,39.308 24.875,37.229 28.95,33.069C33.023,28.909 35.062,23.398 35.062,16.535C35.062,9.673 33.023,4.162 28.95,0C24.875,-4.158 20.05,-6.239 14.476,-6.239C8.898,-6.239 4.073,-4.158 0,0C-4.075,4.162 -6.111,9.673 -6.111,16.535C-6.111,23.398 -4.075,28.909 0,33.069M-8.813,-7.46C-2.724,-13.851 5.038,-17.048 14.476,-17.048C23.91,-17.048 31.672,-13.851 37.764,-7.46C43.854,-1.07 46.899,6.929 46.899,16.535C46.899,26.143 43.854,34.141 37.764,40.531C31.672,46.922 23.91,50.117 14.476,50.117C5.038,50.117 -2.724,46.922 -8.813,40.531C-14.904,34.141 -17.948,26.143 -17.948,16.535C-17.948,6.929 -14.904,-1.07 -8.813,-7.46" style="fill:rgb(95,99,104);fill-rule:nonzero;"/>
        </g>
        <g transform="matrix(1,0,0,1,755.165,102.46)">
            <path d="M0,60.988L-11.323,60.988L-11.323,52.238L-11.838,52.238C-13.64,55.241 -16.386,57.793 -20.072,59.894C-23.761,61.995 -27.664,63.047 -31.78,63.047C-39.674,63.047 -45.656,60.647 -49.729,55.841C-53.805,51.039 -55.842,44.604 -55.842,36.542L-55.842,-2.059L-44.004,-2.059L-44.004,34.613C-44.004,46.364 -38.814,52.238 -28.436,52.238C-23.546,52.238 -19.558,50.268 -16.469,46.32C-13.382,42.375 -11.838,37.828 -11.838,32.683L-11.838,-2.059L0,-2.059L0,60.988Z" style="fill:rgb(95,99,104);fill-rule:nonzero;"/>
        </g>
        <g transform="matrix(1,0,0,1,797.239,82.1308)">
            <path d="M0,72.567C5.575,72.567 10.313,70.508 14.217,66.39C18.12,62.275 20.071,56.742 20.071,49.794C20.071,42.847 18.12,37.312 14.217,33.194C10.313,29.078 5.575,27.02 0,27.02C-5.49,27.02 -10.21,29.101 -14.153,33.259C-18.1,37.421 -20.072,42.931 -20.072,49.794C-20.072,56.657 -18.1,62.168 -14.153,66.328C-10.21,70.488 -5.49,72.567 0,72.567M-1.931,83.376C-10.08,83.376 -17.113,80.16 -23.032,73.725C-28.95,67.293 -31.909,59.316 -31.909,49.794C-31.909,40.271 -28.95,32.294 -23.032,25.863C-17.113,19.428 -10.08,16.211 -1.931,16.211C2.872,16.211 7.183,17.24 11.001,19.299C14.816,21.358 17.669,23.931 19.557,27.02L20.071,27.02L19.557,18.27L19.557,-10.809L31.395,-10.809L31.395,81.317L20.071,81.317L20.071,72.567L19.557,72.567C17.669,75.655 14.816,78.229 11.001,80.288C7.183,82.346 2.872,83.376 -1.931,83.376" style="fill:rgb(95,99,104);fill-rule:nonzero;"/>
        </g>
    </g>
</svg>
