<?xml version="1.0" encoding="UTF-8" standalone="no"?>
<!DOCTYPE svg PUBLIC "-//W3C//DTD SVG 1.1//EN" "http://www.w3.org/Graphics/SVG/1.1/DTD/svg11.dtd">
<svg width="100%" height="100%" viewBox="0 0 423 125" version="1.1" xmlns="http://www.w3.org/2000/svg" xmlns:xlink="http://www.w3.org/1999/xlink" xml:space="preserve" style="fill-rule:evenodd;clip-rule:evenodd;stroke-linejoin:round;stroke-miterlimit:1.41421;">
    <g transform="matrix(1,0,0,1,-79.6924,-52.7074)">
        <g transform="matrix(1,0,0,1,-76.551,-141.714)">
            <path d="M521.841,219.562C513.83,217.448 508.325,220.304 504.562,223.934C503.867,218.483 500.136,212.296 495.395,212.146C492.81,212.064 490.854,212.022 487.931,219.38C485.858,224.591 483.511,232.073 481.145,241.017C476.974,256.773 474.986,280.705 474.569,286.743C473.96,295.549 494.783,297.584 494.113,289.863C493.01,277.151 495.251,259.946 498.967,248.436C501.076,241.902 506.33,235.242 511.228,233.449C509.336,235.101 508.748,238.513 508.737,240.133C508.694,246.338 510.632,251.13 518.466,252.917C524.904,254.386 533.358,250.38 534.072,236.619C534.457,229.187 528.633,221.346 521.841,219.562" style="fill:rgb(0,189,112);fill-rule:nonzero;"/>
        </g>
        <g transform="matrix(1,0,0,1,-76.551,-141.714)">
            <path d="M544.209,266.402C537.681,266.843 534.23,278.479 533.883,283.171C533.623,286.716 534.663,289.88 536.739,291.887C538.232,293.33 540.143,294.027 542.123,293.867C544.145,293.7 546.688,291.61 548.602,288.54C550.875,284.896 552.092,280.24 552.027,275.371C551.933,268.298 546.715,266.215 544.209,266.402M546.544,278.091C545.961,282.784 543.601,288.749 541.816,289.162C540.644,289.476 540.02,286.716 540.178,284.14C540.55,278.085 543.792,271.956 545.455,272.174C546.827,272.353 546.857,275.576 546.544,278.091" style="fill:rgb(0,189,112);fill-rule:nonzero;"/>
        </g>
        <g transform="matrix(1,0,0,1,-76.551,-141.714)">
            <path d="M508.331,284.161C505.76,284.161 503.669,286.253 503.669,288.824C503.669,291.394 505.76,293.486 508.331,293.486C510.902,293.486 512.994,291.394 512.994,288.824C512.994,286.253 510.902,284.161 508.331,284.161" style="fill:rgb(0,189,112);fill-rule:nonzero;"/>
        </g>
        <g transform="matrix(1,0,0,1,-76.551,-141.714)">
            <path d="M571.787,268.778C574.395,264.489 579.347,265.816 578.595,273.508C578.266,276.868 576.849,288.271 576.34,291.324C575.576,295.91 570.426,294.03 570.808,291.451C571.013,290.065 572.74,277.686 572.74,277.686C572.74,277.686 569.033,284.806 567.587,287.478C566.128,290.174 564.095,289.821 563.166,286.903C562.829,285.844 561.218,277.086 561.218,277.086C561.218,277.086 558.437,289.621 557.552,292.429C556.666,295.237 550.448,294.787 551.672,290.131C553.853,281.837 555.362,275.903 556.365,271.773C557.95,265.241 562.747,265.402 563.829,268.424C565.111,272.005 566.659,278.415 566.659,278.415C566.659,278.415 570.292,271.236 571.787,268.778" style="fill:rgb(0,189,112);fill-rule:nonzero;"/>
        </g>
        <g transform="matrix(1,0,0,1,-76.551,-141.714)">
            <path d="M529.435,286.019C527.682,285.18 526.518,287.08 526.031,287.787C525.6,288.414 524.822,289.047 524.326,289.162C523.153,289.476 522.53,286.716 522.688,284.14C523.06,278.084 526.301,271.956 527.965,272.174C528.649,272.263 528.913,273.299 529.14,274.249C529.426,275.443 530.581,276.749 532.22,276.116C533.977,275.438 534.077,273.199 533.468,271.271C531.902,267.473 528.368,266.257 526.437,266.402C519.908,266.843 516.458,278.478 516.111,283.171C515.851,286.716 516.89,289.879 518.967,291.887C520.46,293.33 522.371,294.026 524.351,293.867C525.986,293.732 528.153,292.65 529.667,290.171C529.667,290.171 531.469,286.992 529.435,286.019" style="fill:rgb(0,189,112);fill-rule:nonzero;"/>
        </g>
        <g transform="matrix(1,0,0,1,-76.551,-141.714)">
            <path d="M168.35,231.17C167.504,226.137 172.129,223.601 174.507,223.224C180.696,222.211 185.473,229.755 186.418,233.012C187.132,235.47 186.573,237.924 184.889,239.769C183.677,241.095 181.975,241.978 180.095,242.267C178.174,242.559 175.51,241.593 173.307,239.808C170.692,237.686 168.933,234.633 168.35,231.17" style="fill:rgb(0,189,112);fill-rule:nonzero;"/>
        </g>
        <g transform="matrix(1,0,0,1,-76.551,-141.714)">
            <path d="M157.616,254.127C154.519,250.083 157.367,245.939 159.265,244.619C164.193,241.154 171.899,245.753 174.25,248.204C176.025,250.054 176.688,252.43 176.081,254.744C175.646,256.408 174.574,257.888 173.068,258.924C171.528,259.98 168.75,260.248 165.991,259.606C162.713,258.843 159.748,256.91 157.616,254.127" style="fill:rgb(0,189,112);fill-rule:nonzero;"/>
        </g>
        <g transform="matrix(1,0,0,1,-76.551,-141.714)">
            <path d="M208.076,221.895C206.83,216.8 201.582,216.006 199.256,216.485C193.188,217.692 191.847,226.563 192.288,229.998C192.623,232.593 194.118,234.736 196.401,235.903C198.04,236.741 199.951,236.984 201.787,236.598C203.66,236.202 205.711,234.347 207.01,231.869C208.549,228.928 208.933,225.401 208.076,221.895" style="fill:rgb(0,189,112);fill-rule:nonzero;"/>
        </g>
        <g transform="matrix(1,0,0,1,-76.551,-141.714)">
            <path d="M229.37,232.557C229.427,227.364 224.38,225.475 221.932,225.438C215.556,225.309 211.945,233.601 211.508,237.017C211.179,239.598 212.127,241.989 214.111,243.605C215.537,244.765 217.387,245.41 219.32,245.429C221.295,245.448 223.821,244.091 225.753,241.974C228.045,239.459 229.331,236.131 229.37,232.557" style="fill:rgb(0,189,112);fill-rule:nonzero;"/>
        </g>
        <g transform="matrix(1,0,0,1,-76.551,-141.714)">
            <path d="M225.341,267.664C225.631,271.655 224.796,275.871 221.644,278.559C217.97,281.692 213.462,281.171 208.964,280.349C207.463,280.075 206.086,280.221 204.786,280.613C203.487,281.006 202.276,281.642 201.219,282.688C198.052,285.826 194.945,289.071 190.035,288.531C185.823,288.067 181.204,284.86 179.761,281.085C174.068,266.189 185.935,246.183 191.803,241.724C197.833,241.88 224.097,250.579 225.341,267.664" style="fill:rgb(0,189,112);fill-rule:nonzero;"/>
        </g>
        <g transform="matrix(1,0,0,1,-76.551,-141.714)">
            <path d="M333.778,212.362C314.422,214.971 306.452,250.307 306.348,264.352C306.274,274.961 309.998,284.177 316.581,289.744C321.313,293.746 327.143,295.442 333.007,294.573C338.995,293.677 346.154,286.946 351.249,277.426C357.294,266.122 359.999,252.013 358.841,237.527C357.158,216.476 341.204,211.307 333.778,212.362M343.89,246.658C343.084,260.751 337.236,278.983 332.001,280.568C328.572,281.734 326.167,273.637 326.128,265.934C326.035,247.826 334.475,228.93 339.473,229.249C343.595,229.512 344.322,239.105 343.89,246.658" style="fill:rgb(0,189,112);fill-rule:nonzero;"/>
        </g>
        <g transform="matrix(1,0,0,1,-76.551,-141.714)">
            <path d="M457.968,273.678C454.13,276.1 452.901,281.117 446.039,280.557C439.104,279.99 437.714,272.582 437.766,267.201C437.797,264.117 438.268,261.501 438.268,261.501C438.268,261.501 447.641,261.715 456.764,258.974C467.097,255.87 471.629,251.532 474.37,243.955C477.425,235.515 477.002,222.855 467.097,215.848C460.285,211.03 448.02,210.435 435.014,223.922C425.846,233.428 420.46,246.989 419.807,262.646C419.076,280.178 432.02,293.857 442.058,294.397C453.073,294.99 459.249,290.486 464.48,281.81C467.432,276.914 463.676,270.075 457.968,273.678M462.777,236.337C461.547,243.774 451.473,250.067 440.687,249.226C445.223,236.365 452.544,230.284 455.957,229.055C458.797,228.032 463.514,231.879 462.777,236.337" style="fill:rgb(0,189,112);fill-rule:nonzero;"/>
        </g>
        <g transform="matrix(1,0,0,1,-76.551,-141.714)">
            <path d="M418.186,238.834C414.059,270.351 394.926,290.801 380.998,294.349C377.503,295.239 357.984,282.554 367.455,221.216C369.008,211.159 375.212,211.445 381.881,214.715C388.41,217.917 390.135,224.317 389.078,230.021C387.983,235.936 385.587,243.99 385.022,249.2C382.962,268.178 386.792,276.487 386.792,276.487C386.792,276.487 399.287,265.903 402.732,235.426C403.868,225.384 402.399,218.265 406.008,217.126C412.428,215.101 420.051,224.588 418.186,238.834" style="fill:rgb(0,189,112);fill-rule:nonzero;"/>
        </g>
        <g transform="matrix(1,0,0,1,-76.551,-141.714)">
            <path d="M271.676,211.624C281.915,209.368 286.957,213.067 287.431,220.91C288.236,234.153 274.914,253.892 256.716,256.164C259.728,245.459 265.251,228.299 271.676,211.624M317.512,298.673C316.686,297.708 315.387,297.161 313.562,297.409C309.881,298.474 303.365,300.014 298.249,296.79C292.304,293.058 268.481,266.695 268.481,266.695C280.474,263.485 293.226,253.949 297.716,248.902C299.286,247.237 300.745,245.467 302.057,243.588C302.141,243.472 302.192,243.4 302.191,243.402C306.924,236.554 309.742,228.295 309.156,218.617C307.901,197.899 291.036,185.614 243.405,202.025C230.412,206.502 239.133,221.557 245.387,219.066C246.818,218.496 249.137,217.401 250.118,216.967C244.403,236.895 226.298,290.775 227.335,307.283C228.072,319.41 243.125,320.24 246.47,318.435C250.76,316.118 247.245,305.605 253.499,275.979C253.574,275.628 269.126,296.681 276.863,306.078C282.317,312.702 292.404,318.747 300.797,317.088C310.96,315.217 315.497,310.421 317.929,305.27C318.952,303.101 318.903,300.297 317.512,298.673" style="fill:rgb(0,189,112);fill-rule:nonzero;"/>
        </g>
    </g>
</svg>
